<?xml version="1.0" standalone="no"?>
<!DOCTYPE svg PUBLIC "-//W3C//DTD SVG 20010904//EN"
 "http://www.w3.org/TR/2001/REC-SVG-20010904/DTD/svg10.dtd">
<svg version="1.0" xmlns="http://www.w3.org/2000/svg"
 width="1536.000000pt" height="1024.000000pt" viewBox="0 0 1536.000000 1024.000000"
 preserveAspectRatio="xMidYMid meet">

<g transform="translate(0.000000,1024.000000) scale(0.100000,-0.100000)"
fill="#000000" stroke="none">
<path d="M0 5120 l0 -5120 7680 0 7680 0 0 5120 0 5120 -7680 0 -7680 0 0
-5120z m8068 2486 c15 -8 50 -38 77 -66 28 -29 100 -95 160 -148 61 -53 147
-131 192 -173 95 -91 131 -111 237 -133 124 -25 151 -42 307 -191 114 -109
158 -144 214 -171 38 -18 110 -63 159 -99 71 -54 111 -75 211 -111 68 -25 135
-57 152 -72 17 -15 74 -75 128 -134 l96 -108 52 27 c29 14 79 44 111 66 61 41
129 67 176 67 26 0 50 13 240 133 156 99 161 98 360 -61 52 -42 131 -106 175
-143 87 -73 144 -104 248 -139 48 -15 101 -46 180 -103 168 -121 214 -151 305
-197 101 -51 109 -51 295 20 71 28 144 50 162 50 31 0 75 -29 255 -171 83 -65
168 -112 267 -149 109 -40 256 -104 301 -131 20 -12 91 -62 157 -109 66 -48
140 -99 165 -113 56 -32 173 -71 278 -93 103 -21 143 -40 280 -132 161 -108
298 -192 494 -303 165 -93 213 -132 81 -66 -37 19 -126 60 -198 92 -71 31
-236 108 -365 170 -253 122 -272 129 -369 144 -88 14 -166 54 -301 153 -180
132 -236 168 -311 198 -38 16 -69 26 -69 22 1 -4 14 -22 30 -41 16 -19 28 -36
26 -38 -4 -5 -311 151 -332 168 -8 6 -17 10 -19 7 -3 -2 31 -39 74 -81 55 -54
97 -85 137 -102 108 -47 158 -78 299 -185 77 -58 184 -136 238 -173 53 -38 97
-70 97 -73 0 -3 -3 -3 -7 -1 -5 2 -64 36 -133 74 -69 39 -179 100 -245 135
-66 36 -133 73 -150 82 -16 9 -68 34 -115 55 -47 22 -100 50 -119 62 l-34 23
12 -22 c6 -12 34 -49 62 -82 27 -33 46 -60 42 -60 -21 1 -189 147 -226 197
-23 31 -65 82 -93 112 -29 31 -68 90 -89 130 -45 90 -112 178 -142 187 -14 4
-72 -11 -154 -38 l-132 -44 67 -57 c36 -31 117 -106 179 -166 62 -61 131 -125
154 -143 57 -43 45 -50 -15 -8 -124 87 -329 220 -416 269 -53 30 -131 81 -174
113 -59 45 -96 64 -162 84 -47 15 -107 37 -133 51 l-49 24 58 -73 c32 -40 75
-93 96 -117 21 -24 36 -46 34 -49 -3 -2 -23 11 -45 30 -22 18 -87 62 -145 96
-58 35 -139 94 -180 131 -69 62 -175 141 -191 141 -3 0 13 -27 36 -61 23 -34
64 -111 92 -173 50 -111 120 -224 178 -291 22 -24 26 -35 16 -35 -30 0 -281
289 -361 415 -51 80 -92 122 -146 150 -75 38 -91 62 -102 157 -9 67 -18 94
-46 138 -19 30 -36 56 -37 58 -7 8 -68 -31 -114 -72 -27 -24 -75 -60 -108 -80
-71 -44 -183 -98 -183 -88 0 3 17 23 37 44 42 43 35 46 -48 22 -64 -19 -209
-90 -209 -103 0 -15 243 -236 315 -285 70 -49 266 -147 380 -191 88 -34 161
-72 242 -126 39 -27 122 -76 185 -110 62 -34 178 -101 258 -149 80 -49 177
-104 215 -122 74 -36 626 -356 660 -383 19 -14 19 -15 -6 -6 -15 5 -67 29
-115 54 -49 24 -192 91 -319 147 -126 57 -402 191 -613 297 -211 106 -402 198
-425 204 -119 31 -374 147 -527 240 -79 47 131 -136 237 -207 160 -107 166
-121 20 -48 -208 105 -319 184 -515 367 -98 92 -145 129 -180 142 -151 55
-183 68 -224 94 -46 29 -308 277 -308 291 0 9 102 -47 222 -121 42 -26 87 -50
100 -54 l23 -7 -25 27 c-36 38 -410 319 -473 354 -28 16 -81 37 -116 46 -36 9
-83 26 -105 37 l-41 20 26 -28 c37 -41 110 -146 105 -152 -2 -2 -44 28 -93 66
-72 57 -238 174 -290 206 -23 13 -14 -2 35 -61 27 -32 78 -99 113 -148 35 -50
138 -173 229 -274 91 -102 197 -221 237 -265 40 -44 70 -82 68 -84 -6 -7 -176
132 -299 244 -157 143 -230 199 -327 249 -66 35 -114 72 -211 163 -120 112
-208 189 -236 206 -9 5 -7 -6 6 -30 10 -22 32 -79 47 -129 20 -61 46 -114 83
-170 52 -76 53 -78 18 -45 -21 19 -60 62 -87 95 -28 33 -78 83 -113 110 -35
28 -87 83 -116 123 -28 39 -53 72 -53 72 -1 0 -1 -63 0 -140 1 -131 3 -144 28
-193 15 -28 46 -72 70 -97 24 -25 53 -64 64 -88 32 -64 89 -150 135 -207 54
-66 23 -41 -133 105 -142 133 -234 237 -264 298 -22 43 -37 54 -37 26 0 -22
40 -175 51 -196 8 -15 6 -18 -15 -18 -18 0 -33 12 -54 43 -16 23 -33 52 -36
65 -10 32 -30 22 -34 -16 -4 -40 19 -89 68 -144 20 -24 53 -75 73 -114 45 -89
73 -113 217 -183 101 -49 127 -67 215 -152 113 -108 208 -184 348 -279 53 -36
97 -68 97 -73 0 -18 -370 182 -497 269 -118 81 -172 108 -279 139 -89 26 -133
48 -193 97 -19 15 -36 26 -38 24 -2 -2 7 -28 20 -57 15 -34 48 -79 90 -121 60
-59 88 -101 55 -82 -42 25 -134 90 -165 117 l-36 32 6 -50 c4 -27 10 -63 13
-80 4 -20 3 -27 -3 -20 -11 11 -38 84 -47 127 -3 14 -23 48 -43 75 -21 26 -59
83 -84 126 l-48 78 -33 -63 c-45 -84 -58 -86 -51 -6 l5 63 -48 -50 c-27 -28
-71 -66 -99 -85 -34 -24 -68 -63 -106 -121 -49 -74 -66 -91 -125 -126 -82 -49
-386 -204 -391 -199 -2 1 38 34 89 72 198 149 259 206 326 310 28 45 66 153
57 162 -2 2 -27 -12 -57 -32 -29 -20 -56 -36 -61 -36 -5 0 28 37 73 81 45 45
101 112 126 149 26 40 101 122 178 197 73 70 148 152 166 181 37 60 56 61 34
0 -14 -41 -19 -88 -8 -88 10 0 67 41 102 74 66 61 76 94 77 256 l0 145 42 80
43 80 -7 146 -6 146 -70 -39 c-72 -39 -118 -74 -197 -148 -75 -70 -102 -87
-180 -116 -126 -45 -160 -68 -305 -210 -146 -142 -177 -163 -331 -224 -111
-44 -144 -63 -193 -110 -24 -23 -46 -38 -50 -35 -3 4 12 22 34 41 34 28 37 34
19 34 -49 0 -165 -72 -257 -160 -94 -89 -139 -117 -291 -180 -91 -38 -112 -57
-227 -210 -48 -63 -121 -152 -164 -197 -42 -46 -75 -83 -72 -83 18 0 222 93
249 113 45 33 328 192 328 183 0 -3 -28 -26 -62 -52 -35 -27 -100 -80 -146
-119 -154 -131 -177 -147 -277 -196 -106 -51 -149 -63 -124 -32 13 15 10 16
-39 9 -83 -11 -212 -62 -305 -121 -89 -57 -399 -216 -406 -209 -2 2 -2 5 0 7
57 38 266 202 364 287 72 61 171 142 220 180 104 78 185 151 185 167 0 14
-141 70 -207 82 -27 5 -79 12 -117 15 l-69 6 21 -23 c12 -13 22 -30 22 -39 0
-8 14 -32 30 -53 36 -45 39 -64 8 -41 -44 31 -101 58 -196 91 -53 18 -105 37
-115 41 -13 4 -2 -19 34 -75 28 -45 50 -84 48 -86 -7 -6 -195 90 -232 118
l-34 25 14 -51 c7 -28 13 -72 13 -97 0 -38 15 -108 47 -222 3 -10 1 -18 -3
-18 -5 0 -29 39 -53 88 -33 63 -61 102 -102 140 -46 43 -60 63 -70 102 -14 55
-24 57 -34 4 -4 -25 -25 -56 -69 -103 -75 -80 -84 -105 -56 -166 24 -53 25
-86 3 -150 -18 -55 -64 -104 -188 -205 -100 -80 -283 -202 -297 -198 -6 2 15
26 47 53 87 77 189 179 168 170 -10 -4 -49 -20 -88 -35 -314 -124 -338 -138
-513 -287 -65 -56 -138 -104 -241 -161 -163 -90 -208 -105 -115 -41 158 111
205 153 324 293 158 186 250 253 460 331 86 32 210 113 247 162 22 29 25 40
19 82 -9 67 4 95 81 173 l66 67 2 68 c1 55 7 78 29 116 15 26 23 47 17 47 -10
0 -161 -101 -270 -180 -30 -22 -56 -38 -59 -36 -2 3 6 19 18 35 12 17 17 31
11 31 -6 0 -52 -16 -102 -36 -96 -39 -143 -71 -309 -214 -117 -100 -141 -112
-345 -166 -234 -63 -251 -72 -380 -218 -127 -143 -171 -177 -333 -259 -108
-54 -162 -88 -215 -135 -39 -35 -97 -84 -128 -110 -32 -25 -56 -48 -54 -51 13
-12 151 30 321 98 189 75 233 88 156 45 -20 -12 -104 -60 -187 -108 -195 -113
-252 -131 -390 -122 -76 5 -118 3 -166 -8 -57 -13 -412 -178 -671 -311 -48
-25 -90 -45 -95 -45 -4 0 28 24 72 52 44 28 163 108 265 178 102 70 212 142
245 160 68 38 246 155 410 270 136 96 143 99 318 161 78 28 162 63 187 77 25
14 119 100 210 192 l165 166 90 23 c198 50 312 84 358 107 26 14 114 84 196
157 132 118 157 136 232 166 197 80 265 122 450 277 153 128 145 128 365 -22
120 -81 169 -104 229 -104 59 -1 121 -22 205 -69 47 -27 110 -56 140 -65 30
-10 93 -35 139 -57 46 -21 85 -39 86 -39 2 0 36 39 76 87 161 189 154 185 384
273 87 34 94 39 230 172 l141 136 89 27 c266 79 316 95 347 111 18 9 92 74
163 144 150 146 170 162 260 195 117 44 177 81 320 196 265 212 273 216 333
185z m-2645 -1533 c23 -12 27 -18 15 -21 -24 -5 -81 12 -86 26 -6 18 34 15 71
-5z m-735 -184 c-5 -35 -28 -36 -28 -1 0 16 3 32 7 35 11 12 25 -9 21 -34z
m177 -754 c124 -32 178 -98 183 -225 3 -63 -1 -82 -20 -120 -44 -86 -143 -130
-293 -130 l-75 0 0 -104 0 -105 -54 -6 c-30 -4 -73 -4 -95 0 l-41 7 0 342 c0
189 3 346 7 349 14 14 327 7 388 -8z m633 3 c16 -21 262 -681 256 -690 -6 -9
-117 -11 -162 -2 -27 6 -34 14 -50 63 l-19 56 -128 0 -128 0 -21 -60 -21 -60
-98 -3 c-53 -1 -97 1 -97 5 0 4 59 164 132 355 l133 348 96 0 c66 0 100 -4
107 -12z m767 -16 c96 -44 133 -97 142 -201 5 -59 2 -76 -20 -124 -43 -95
-134 -137 -292 -137 l-75 0 0 -104 0 -103 -37 -7 c-48 -7 -101 -7 -130 0 l-23
6 0 342 c0 189 3 346 8 350 4 4 90 6 192 4 167 -3 190 -6 235 -26z m592 16 c9
-12 246 -643 255 -676 2 -11 -18 -14 -91 -13 -52 0 -97 4 -101 8 -4 4 -15 32
-25 61 l-17 52 -127 0 -128 0 -18 -60 c-18 -59 -18 -59 -62 -66 -24 -3 -68 -3
-99 1 -46 5 -55 10 -51 23 3 10 43 116 90 237 46 121 102 265 122 320 21 55
43 106 48 113 6 8 40 12 102 12 62 0 96 -4 102 -12z m521 -125 l3 -133 124 0
125 0 0 135 0 136 93 -3 92 -3 0 -350 0 -350 -90 0 -90 0 -3 138 -3 137 -124
0 -124 0 -3 -137 -3 -138 -90 0 -90 0 -3 353 -2 353 92 -3 93 -3 3 -132z
m1089 -168 c62 -165 121 -321 132 -347 l19 -47 -53 -6 c-29 -4 -75 -4 -102 0
-50 6 -50 6 -70 63 l-20 57 -125 3 -124 3 -20 -63 -20 -63 -92 -2 c-50 -1 -94
2 -97 7 -3 5 51 159 120 342 69 183 127 339 130 346 3 9 31 12 106 10 l102 -3
114 -300z m858 65 c44 -132 82 -236 86 -232 4 4 41 112 84 240 l77 232 93 0
c52 0 96 -4 99 -9 5 -7 -66 -208 -201 -566 l-49 -130 -79 -3 c-44 -2 -94 -1
-110 2 -33 7 -20 -23 -140 311 -24 66 -64 176 -89 244 -25 69 -46 131 -46 138
0 10 24 13 98 13 l97 0 80 -240z m887 229 c114 -24 179 -81 198 -174 26 -123
-17 -222 -115 -270 -48 -24 -73 -29 -161 -33 l-104 -5 0 -102 0 -103 -74 -7
c-128 -12 -116 -49 -116 356 l0 349 160 0 c87 0 183 -5 212 -11z m533 -86 c38
-54 100 -142 139 -195 l71 -98 3 196 2 195 88 -3 87 -3 3 -347 2 -348 -47 -2
c-83 -4 -126 1 -134 14 -4 7 -58 81 -119 163 -61 83 -119 162 -128 178 -9 15
-19 27 -22 27 -3 0 -4 -85 -2 -189 l3 -190 -43 -6 c-24 -4 -65 -5 -93 -3 l-50
3 2 350 c1 193 3 351 3 353 0 1 38 2 83 2 l84 0 68 -97z m-1747 -330 l3 -73
-164 0 -164 0 -7 31 c-8 42 -8 104 1 113 4 3 79 5 167 4 l161 -3 3 -72z"/>
<path d="M4660 4905 l0 -85 79 0 c74 0 81 2 100 26 35 44 25 106 -20 129 -16
9 -56 15 -94 15 l-65 0 0 -85z"/>
<path d="M5362 4843 c-51 -149 -55 -133 33 -133 58 0 76 3 73 13 -3 6 -20 56
-37 110 -18 53 -34 97 -36 97 -1 0 -16 -39 -33 -87z"/>
<path d="M6022 4904 l3 -89 74 0 c67 0 75 3 97 28 31 36 31 78 0 114 -21 25
-31 28 -100 31 l-77 4 3 -88z"/>
<path d="M6745 4919 c-17 -47 -65 -194 -65 -201 0 -4 34 -8 75 -8 41 0 75 2
75 4 0 7 -72 211 -76 215 -2 2 -6 -2 -9 -10z"/>
<path d="M8212 4832 c-17 -53 -32 -103 -32 -109 0 -9 21 -13 70 -13 48 0 70 4
70 12 0 18 -64 208 -70 208 -3 0 -20 -44 -38 -98z"/>
<path d="M10030 4900 l0 -93 76 5 c86 6 111 22 120 79 5 28 1 41 -19 65 -23
26 -32 29 -101 32 l-76 4 0 -92z"/>
</g>
</svg>
